0
SECTION
2
HEADER
9
$INSUNITS
70
4
0
ENDSEC
0
SECTION
2
TABLES
0
TABLE
2
LTYPE
0
LTYPE
72
65
70
64
2
CONTINUOUS
3
______
73
0
40
0
0
ENDTAB
0
TABLE
2
LAYER
0
ENDTAB
0
ENDSEC
0
SECTION
2
ENTITIES
0
LINE
8
0
10
2.525
20
-2.525
11
16.525
21
-2.525
0
LINE
8
0
10
2.525
20
-16.525
11
16.525
21
-16.525
0
LINE
8
0
10
2.525
20
-2.525
11
2.525
21
-16.525
0
LINE
8
0
10
16.525
20
-2.525
11
16.525
21
-16.525
0
LINE
8
0
10
22.337
20
-2.525
11
36.337
21
-2.525
0
LINE
8
0
10
22.337
20
-16.525
11
36.337
21
-16.525
0
LINE
8
0
10
22.337
20
-2.525
11
22.337
21
-16.525
0
LINE
8
0
10
36.337
20
-2.525
11
36.337
21
-16.525
0
LINE
8
0
10
42.149
20
-2.525
11
56.149
21
-2.525
0
LINE
8
0
10
42.149
20
-16.525
11
56.149
21
-16.525
0
LINE
8
0
10
42.149
20
-2.525
11
42.149
21
-16.525
0
LINE
8
0
10
56.149
20
-2.525
11
56.149
21
-16.525
0
LINE
8
0
10
61.961
20
-2.525
11
75.961
21
-2.525
0
LINE
8
0
10
61.961
20
-16.525
11
75.961
21
-16.525
0
LINE
8
0
10
61.961
20
-2.525
11
61.961
21
-16.525
0
LINE
8
0
10
75.961
20
-2.525
11
75.961
21
-16.525
0
LINE
8
0
10
81.773
20
-2.525
11
95.773
21
-2.525
0
LINE
8
0
10
81.773
20
-16.525
11
95.773
21
-16.525
0
LINE
8
0
10
81.773
20
-2.525
11
81.773
21
-16.525
0
LINE
8
0
10
95.773
20
-2.525
11
95.773
21
-16.525
0
LINE
8
0
10
101.585
20
-2.525
11
115.585
21
-2.525
0
LINE
8
0
10
101.585
20
-16.525
11
115.585
21
-16.525
0
LINE
8
0
10
101.585
20
-2.525
11
101.585
21
-16.525
0
LINE
8
0
10
115.585
20
-2.525
11
115.585
21
-16.525
0
LINE
8
0
10
121.397
20
-2.525
11
135.397
21
-2.525
0
LINE
8
0
10
121.397
20
-16.525
11
135.397
21
-16.525
0
LINE
8
0
10
121.397
20
-2.525
11
121.397
21
-16.525
0
LINE
8
0
10
135.397
20
-2.525
11
135.397
21
-16.525
0
LINE
8
0
10
141.209
20
-2.525
11
155.209
21
-2.525
0
LINE
8
0
10
141.209
20
-16.525
11
155.209
21
-16.525
0
LINE
8
0
10
141.209
20
-2.525
11
141.209
21
-16.525
0
LINE
8
0
10
155.209
20
-2.525
11
155.209
21
-16.525
0
LINE
8
0
10
161.021
20
-2.525
11
175.021
21
-2.525
0
LINE
8
0
10
161.021
20
-16.525
11
175.021
21
-16.525
0
LINE
8
0
10
161.021
20
-2.525
11
161.021
21
-16.525
0
LINE
8
0
10
175.021
20
-2.525
11
175.021
21
-16.525
0
LINE
8
0
10
180.833
20
-2.525
11
194.833
21
-2.525
0
LINE
8
0
10
180.833
20
-16.525
11
194.833
21
-16.525
0
LINE
8
0
10
180.833
20
-2.525
11
180.833
21
-16.525
0
LINE
8
0
10
194.833
20
-2.525
11
194.833
21
-16.525
0
LINE
8
0
10
200.645
20
-2.525
11
214.645
21
-2.525
0
LINE
8
0
10
200.645
20
-16.525
11
214.645
21
-16.525
0
LINE
8
0
10
200.645
20
-2.525
11
200.645
21
-16.525
0
LINE
8
0
10
214.645
20
-2.525
11
214.645
21
-16.525
0
LINE
8
0
10
220.457
20
-2.525
11
234.457
21
-2.525
0
LINE
8
0
10
220.457
20
-16.525
11
234.457
21
-16.525
0
LINE
8
0
10
220.457
20
-2.525
11
220.457
21
-16.525
0
LINE
8
0
10
234.457
20
-2.525
11
234.457
21
-16.525
0
LINE
8
0
10
240.269
20
-2.525
11
254.269
21
-2.525
0
LINE
8
0
10
240.269
20
-16.525
11
254.269
21
-16.525
0
LINE
8
0
10
240.269
20
-2.525
11
240.269
21
-16.525
0
LINE
8
0
10
254.269
20
-2.525
11
254.269
21
-16.525
0
LINE
8
0
10
260.081
20
-2.525
11
274.081
21
-2.525
0
LINE
8
0
10
260.081
20
-16.525
11
274.081
21
-16.525
0
LINE
8
0
10
260.081
20
-2.525
11
260.081
21
-16.525
0
LINE
8
0
10
274.081
20
-2.525
11
274.081
21
-16.525
0
LINE
8
0
10
2.525
20
-23.48
11
16.525
21
-23.48
0
LINE
8
0
10
2.525
20
-37.48
11
16.525
21
-37.48
0
LINE
8
0
10
2.525
20
-23.48
11
2.525
21
-37.48
0
LINE
8
0
10
16.525
20
-23.48
11
16.525
21
-37.48
0
LINE
8
0
10
22.337
20
-23.48
11
36.337
21
-23.48
0
LINE
8
0
10
22.337
20
-37.48
11
36.337
21
-37.48
0
LINE
8
0
10
22.337
20
-23.48
11
22.337
21
-37.48
0
LINE
8
0
10
36.337
20
-23.48
11
36.337
21
-37.48
0
LINE
8
0
10
42.149
20
-23.48
11
56.149
21
-23.48
0
LINE
8
0
10
42.149
20
-37.48
11
56.149
21
-37.48
0
LINE
8
0
10
42.149
20
-23.48
11
42.149
21
-37.48
0
LINE
8
0
10
56.149
20
-23.48
11
56.149
21
-37.48
0
LINE
8
0
10
61.961
20
-23.48
11
75.961
21
-23.48
0
LINE
8
0
10
61.961
20
-37.48
11
75.961
21
-37.48
0
LINE
8
0
10
61.961
20
-23.48
11
61.961
21
-37.48
0
LINE
8
0
10
75.961
20
-23.48
11
75.961
21
-37.48
0
LINE
8
0
10
81.773
20
-23.48
11
95.773
21
-23.48
0
LINE
8
0
10
81.773
20
-37.48
11
95.773
21
-37.48
0
LINE
8
0
10
81.773
20
-23.48
11
81.773
21
-37.48
0
LINE
8
0
10
95.773
20
-23.48
11
95.773
21
-37.48
0
LINE
8
0
10
101.585
20
-23.48
11
115.585
21
-23.48
0
LINE
8
0
10
101.585
20
-37.48
11
115.585
21
-37.48
0
LINE
8
0
10
101.585
20
-23.48
11
101.585
21
-37.48
0
LINE
8
0
10
115.585
20
-23.48
11
115.585
21
-37.48
0
LINE
8
0
10
121.397
20
-23.48
11
135.397
21
-23.48
0
LINE
8
0
10
121.397
20
-37.48
11
135.397
21
-37.48
0
LINE
8
0
10
121.397
20
-23.48
11
121.397
21
-37.48
0
LINE
8
0
10
135.397
20
-23.48
11
135.397
21
-37.48
0
LINE
8
0
10
141.209
20
-23.48
11
155.209
21
-23.48
0
LINE
8
0
10
141.209
20
-37.48
11
155.209
21
-37.48
0
LINE
8
0
10
141.209
20
-23.48
11
141.209
21
-37.48
0
LINE
8
0
10
155.209
20
-23.48
11
155.209
21
-37.48
0
LINE
8
0
10
161.021
20
-23.48
11
175.021
21
-23.48
0
LINE
8
0
10
161.021
20
-37.48
11
175.021
21
-37.48
0
LINE
8
0
10
161.021
20
-23.48
11
161.021
21
-37.48
0
LINE
8
0
10
175.021
20
-23.48
11
175.021
21
-37.48
0
LINE
8
0
10
180.833
20
-23.48
11
194.833
21
-23.48
0
LINE
8
0
10
180.833
20
-37.48
11
194.833
21
-37.48
0
LINE
8
0
10
180.833
20
-23.48
11
180.833
21
-37.48
0
LINE
8
0
10
194.833
20
-23.48
11
194.833
21
-37.48
0
LINE
8
0
10
200.645
20
-23.48
11
214.645
21
-23.48
0
LINE
8
0
10
200.645
20
-37.48
11
214.645
21
-37.48
0
LINE
8
0
10
200.645
20
-23.48
11
200.645
21
-37.48
0
LINE
8
0
10
214.645
20
-23.48
11
214.645
21
-37.48
0
LINE
8
0
10
220.457
20
-23.48
11
234.457
21
-23.48
0
LINE
8
0
10
220.457
20
-37.48
11
234.457
21
-37.48
0
LINE
8
0
10
220.457
20
-23.48
11
220.457
21
-37.48
0
LINE
8
0
10
234.457
20
-23.48
11
234.457
21
-37.48
0
LINE
8
0
10
240.269
20
-23.48
11
254.269
21
-23.48
0
LINE
8
0
10
240.269
20
-37.48
11
254.269
21
-37.48
0
LINE
8
0
10
240.269
20
-23.48
11
240.269
21
-37.48
0
LINE
8
0
10
254.269
20
-23.48
11
254.269
21
-37.48
0
LINE
8
0
10
260.081
20
-23.48
11
274.081
21
-23.48
0
LINE
8
0
10
260.081
20
-37.48
11
274.081
21
-37.48
0
LINE
8
0
10
260.081
20
-23.48
11
260.081
21
-37.48
0
LINE
8
0
10
274.081
20
-23.48
11
274.081
21
-37.48
0
LINE
8
0
10
2.525
20
-44.435
11
16.525
21
-44.435
0
LINE
8
0
10
2.525
20
-58.435
11
16.525
21
-58.435
0
LINE
8
0
10
2.525
20
-44.435
11
2.525
21
-58.435
0
LINE
8
0
10
16.525
20
-44.435
11
16.525
21
-58.435
0
LINE
8
0
10
22.337
20
-44.435
11
36.337
21
-44.435
0
LINE
8
0
10
22.337
20
-58.435
11
36.337
21
-58.435
0
LINE
8
0
10
22.337
20
-44.435
11
22.337
21
-58.435
0
LINE
8
0
10
36.337
20
-44.435
11
36.337
21
-58.435
0
LINE
8
0
10
42.149
20
-44.435
11
56.149
21
-44.435
0
LINE
8
0
10
42.149
20
-58.435
11
56.149
21
-58.435
0
LINE
8
0
10
42.149
20
-44.435
11
42.149
21
-58.435
0
LINE
8
0
10
56.149
20
-44.435
11
56.149
21
-58.435
0
LINE
8
0
10
61.961
20
-44.435
11
75.961
21
-44.435
0
LINE
8
0
10
61.961
20
-58.435
11
75.961
21
-58.435
0
LINE
8
0
10
61.961
20
-44.435
11
61.961
21
-58.435
0
LINE
8
0
10
75.961
20
-44.435
11
75.961
21
-58.435
0
LINE
8
0
10
81.773
20
-44.435
11
95.773
21
-44.435
0
LINE
8
0
10
81.773
20
-58.435
11
95.773
21
-58.435
0
LINE
8
0
10
81.773
20
-44.435
11
81.773
21
-58.435
0
LINE
8
0
10
95.773
20
-44.435
11
95.773
21
-58.435
0
LINE
8
0
10
101.585
20
-44.435
11
115.585
21
-44.435
0
LINE
8
0
10
101.585
20
-58.435
11
115.585
21
-58.435
0
LINE
8
0
10
101.585
20
-44.435
11
101.585
21
-58.435
0
LINE
8
0
10
115.585
20
-44.435
11
115.585
21
-58.435
0
LINE
8
0
10
121.397
20
-44.435
11
135.397
21
-44.435
0
LINE
8
0
10
121.397
20
-58.435
11
135.397
21
-58.435
0
LINE
8
0
10
121.397
20
-44.435
11
121.397
21
-58.435
0
LINE
8
0
10
135.397
20
-44.435
11
135.397
21
-58.435
0
LINE
8
0
10
141.209
20
-44.435
11
155.209
21
-44.435
0
LINE
8
0
10
141.209
20
-58.435
11
155.209
21
-58.435
0
LINE
8
0
10
141.209
20
-44.435
11
141.209
21
-58.435
0
LINE
8
0
10
155.209
20
-44.435
11
155.209
21
-58.435
0
LINE
8
0
10
161.021
20
-44.435
11
175.021
21
-44.435
0
LINE
8
0
10
161.021
20
-58.435
11
175.021
21
-58.435
0
LINE
8
0
10
161.021
20
-44.435
11
161.021
21
-58.435
0
LINE
8
0
10
175.021
20
-44.435
11
175.021
21
-58.435
0
LINE
8
0
10
180.833
20
-44.435
11
194.833
21
-44.435
0
LINE
8
0
10
180.833
20
-58.435
11
194.833
21
-58.435
0
LINE
8
0
10
180.833
20
-44.435
11
180.833
21
-58.435
0
LINE
8
0
10
194.833
20
-44.435
11
194.833
21
-58.435
0
LINE
8
0
10
200.645
20
-44.435
11
214.645
21
-44.435
0
LINE
8
0
10
200.645
20
-58.435
11
214.645
21
-58.435
0
LINE
8
0
10
200.645
20
-44.435
11
200.645
21
-58.435
0
LINE
8
0
10
214.645
20
-44.435
11
214.645
21
-58.435
0
LINE
8
0
10
220.457
20
-44.435
11
234.457
21
-44.435
0
LINE
8
0
10
220.457
20
-58.435
11
234.457
21
-58.435
0
LINE
8
0
10
220.457
20
-44.435
11
220.457
21
-58.435
0
LINE
8
0
10
234.457
20
-44.435
11
234.457
21
-58.435
0
LINE
8
0
10
240.269
20
-44.435
11
254.269
21
-44.435
0
LINE
8
0
10
240.269
20
-58.435
11
254.269
21
-58.435
0
LINE
8
0
10
240.269
20
-44.435
11
240.269
21
-58.435
0
LINE
8
0
10
254.269
20
-44.435
11
254.269
21
-58.435
0
LINE
8
0
10
260.081
20
-44.435
11
274.081
21
-44.435
0
LINE
8
0
10
260.081
20
-58.435
11
274.081
21
-58.435
0
LINE
8
0
10
260.081
20
-44.435
11
260.081
21
-58.435
0
LINE
8
0
10
274.081
20
-44.435
11
274.081
21
-58.435
0
LINE
8
0
10
2.525
20
-65.39
11
16.525
21
-65.39
0
LINE
8
0
10
2.525
20
-79.39
11
16.525
21
-79.39
0
LINE
8
0
10
2.525
20
-65.39
11
2.525
21
-79.39
0
LINE
8
0
10
16.525
20
-65.39
11
16.525
21
-79.39
0
LINE
8
0
10
22.337
20
-65.39
11
36.337
21
-65.39
0
LINE
8
0
10
22.337
20
-79.39
11
36.337
21
-79.39
0
LINE
8
0
10
22.337
20
-65.39
11
22.337
21
-79.39
0
LINE
8
0
10
36.337
20
-65.39
11
36.337
21
-79.39
0
LINE
8
0
10
42.149
20
-65.39
11
56.149
21
-65.39
0
LINE
8
0
10
42.149
20
-79.39
11
56.149
21
-79.39
0
LINE
8
0
10
42.149
20
-65.39
11
42.149
21
-79.39
0
LINE
8
0
10
56.149
20
-65.39
11
56.149
21
-79.39
0
LINE
8
0
10
61.961
20
-65.39
11
75.961
21
-65.39
0
LINE
8
0
10
61.961
20
-79.39
11
75.961
21
-79.39
0
LINE
8
0
10
61.961
20
-65.39
11
61.961
21
-79.39
0
LINE
8
0
10
75.961
20
-65.39
11
75.961
21
-79.39
0
LINE
8
0
10
81.773
20
-65.39
11
95.773
21
-65.39
0
LINE
8
0
10
81.773
20
-79.39
11
95.773
21
-79.39
0
LINE
8
0
10
81.773
20
-65.39
11
81.773
21
-79.39
0
LINE
8
0
10
95.773
20
-65.39
11
95.773
21
-79.39
0
LINE
8
0
10
101.585
20
-65.39
11
115.585
21
-65.39
0
LINE
8
0
10
101.585
20
-79.39
11
115.585
21
-79.39
0
LINE
8
0
10
101.585
20
-65.39
11
101.585
21
-79.39
0
LINE
8
0
10
115.585
20
-65.39
11
115.585
21
-79.39
0
LINE
8
0
10
121.397
20
-65.39
11
135.397
21
-65.39
0
LINE
8
0
10
121.397
20
-79.39
11
135.397
21
-79.39
0
LINE
8
0
10
121.397
20
-65.39
11
121.397
21
-79.39
0
LINE
8
0
10
135.397
20
-65.39
11
135.397
21
-79.39
0
LINE
8
0
10
141.209
20
-65.39
11
155.209
21
-65.39
0
LINE
8
0
10
141.209
20
-79.39
11
155.209
21
-79.39
0
LINE
8
0
10
141.209
20
-65.39
11
141.209
21
-79.39
0
LINE
8
0
10
155.209
20
-65.39
11
155.209
21
-79.39
0
LINE
8
0
10
161.021
20
-65.39
11
175.021
21
-65.39
0
LINE
8
0
10
161.021
20
-79.39
11
175.021
21
-79.39
0
LINE
8
0
10
161.021
20
-65.39
11
161.021
21
-79.39
0
LINE
8
0
10
175.021
20
-65.39
11
175.021
21
-79.39
0
LINE
8
0
10
180.833
20
-65.39
11
194.833
21
-65.39
0
LINE
8
0
10
180.833
20
-79.39
11
194.833
21
-79.39
0
LINE
8
0
10
180.833
20
-65.39
11
180.833
21
-79.39
0
LINE
8
0
10
194.833
20
-65.39
11
194.833
21
-79.39
0
LINE
8
0
10
200.645
20
-65.39
11
214.645
21
-65.39
0
LINE
8
0
10
200.645
20
-79.39
11
214.645
21
-79.39
0
LINE
8
0
10
200.645
20
-65.39
11
200.645
21
-79.39
0
LINE
8
0
10
214.645
20
-65.39
11
214.645
21
-79.39
0
LINE
8
0
10
220.457
20
-65.39
11
234.457
21
-65.39
0
LINE
8
0
10
220.457
20
-79.39
11
234.457
21
-79.39
0
LINE
8
0
10
220.457
20
-65.39
11
220.457
21
-79.39
0
LINE
8
0
10
234.457
20
-65.39
11
234.457
21
-79.39
0
LINE
8
0
10
240.269
20
-65.39
11
254.269
21
-65.39
0
LINE
8
0
10
240.269
20
-79.39
11
254.269
21
-79.39
0
LINE
8
0
10
240.269
20
-65.39
11
240.269
21
-79.39
0
LINE
8
0
10
254.269
20
-65.39
11
254.269
21
-79.39
0
LINE
8
0
10
260.081
20
-65.39
11
274.081
21
-65.39
0
LINE
8
0
10
260.081
20
-79.39
11
274.081
21
-79.39
0
LINE
8
0
10
260.081
20
-65.39
11
260.081
21
-79.39
0
LINE
8
0
10
274.081
20
-65.39
11
274.081
21
-79.39
0
LINE
8
0
10
81.773
20
-86.345
11
95.773
21
-86.345
0
LINE
8
0
10
81.773
20
-100.345
11
95.773
21
-100.345
0
LINE
8
0
10
81.773
20
-86.345
11
81.773
21
-100.345
0
LINE
8
0
10
95.773
20
-86.345
11
95.773
21
-100.345
0
LINE
8
0
10
101.585
20
-86.345
11
115.585
21
-86.345
0
LINE
8
0
10
101.585
20
-100.345
11
115.585
21
-100.345
0
LINE
8
0
10
101.585
20
-86.345
11
101.585
21
-100.345
0
LINE
8
0
10
115.585
20
-86.345
11
115.585
21
-100.345
0
LINE
8
0
10
131.303
20
-86.345
11
145.303
21
-86.345
0
LINE
8
0
10
131.303
20
-100.345
11
145.303
21
-100.345
0
LINE
8
0
10
131.303
20
-86.345
11
131.303
21
-100.345
0
LINE
8
0
10
145.303
20
-86.345
11
145.303
21
-100.345
0
LINE
8
0
10
161.021
20
-86.345
11
175.021
21
-86.345
0
LINE
8
0
10
161.021
20
-100.345
11
175.021
21
-100.345
0
LINE
8
0
10
161.021
20
-86.345
11
161.021
21
-100.345
0
LINE
8
0
10
175.021
20
-86.345
11
175.021
21
-100.345
0
LINE
8
0
10
180.833
20
-86.345
11
194.833
21
-86.345
0
LINE
8
0
10
180.833
20
-100.345
11
194.833
21
-100.345
0
LINE
8
0
10
180.833
20
-86.345
11
180.833
21
-100.345
0
LINE
8
0
10
194.833
20
-86.345
11
194.833
21
-100.345
0
LINE
8
0
10
0
20
-102.87
11
276.606
21
-102.87
0
LINE
8
0
10
0
20
0
11
276.606
21
0
0
LINE
8
0
10
0
20
-102.87
11
0
21
0
0
LINE
8
0
10
276.606
20
-102.87
11
276.606
21
0
0
ENDSEC
0
EOF