<svg width="276.606mm" height="102.87mm" viewBox="0 0 276.606 102.87" xmlns="http://www.w3.org/2000/svg"><g id="svgGroup" stroke-linecap="round" fill-rule="evenodd" font-size="9pt" stroke="#000" stroke-width="0.25mm" fill="none" style="stroke:#000;stroke-width:0.25mm;fill:none"><path d="M 0 102.87 L 276.606 102.87 L 276.606 0 L 0 0 L 0 102.87 Z M 22.337 23.48 L 36.337 23.48 L 36.337 37.48 L 22.337 37.48 L 22.337 23.48 Z M 22.337 44.435 L 36.337 44.435 L 36.337 58.435 L 22.337 58.435 L 22.337 44.435 Z M 22.337 65.39 L 36.337 65.39 L 36.337 79.39 L 22.337 79.39 L 22.337 65.39 Z M 22.337 2.525 L 36.337 2.525 L 36.337 16.525 L 22.337 16.525 L 22.337 2.525 Z M 42.149 2.525 L 56.149 2.525 L 56.149 16.525 L 42.149 16.525 L 42.149 2.525 Z M 61.961 2.525 L 75.961 2.525 L 75.961 16.525 L 61.961 16.525 L 61.961 2.525 Z M 81.773 2.525 L 95.773 2.525 L 95.773 16.525 L 81.773 16.525 L 81.773 2.525 Z M 101.585 2.525 L 115.585 2.525 L 115.585 16.525 L 101.585 16.525 L 101.585 2.525 Z M 121.397 2.525 L 135.397 2.525 L 135.397 16.525 L 121.397 16.525 L 121.397 2.525 Z M 141.209 2.525 L 155.209 2.525 L 155.209 16.525 L 141.209 16.525 L 141.209 2.525 Z M 161.021 2.525 L 175.021 2.525 L 175.021 16.525 L 161.021 16.525 L 161.021 2.525 Z M 180.833 2.525 L 194.833 2.525 L 194.833 16.525 L 180.833 16.525 L 180.833 2.525 Z M 200.645 2.525 L 214.645 2.525 L 214.645 16.525 L 200.645 16.525 L 200.645 2.525 Z M 220.457 2.525 L 234.457 2.525 L 234.457 16.525 L 220.457 16.525 L 220.457 2.525 Z M 240.269 2.525 L 254.269 2.525 L 254.269 16.525 L 240.269 16.525 L 240.269 2.525 Z M 260.081 2.525 L 274.081 2.525 L 274.081 16.525 L 260.081 16.525 L 260.081 2.525 Z M 2.525 23.48 L 16.525 23.48 L 16.525 37.48 L 2.525 37.48 L 2.525 23.48 Z M 42.149 23.48 L 56.149 23.48 L 56.149 37.48 L 42.149 37.48 L 42.149 23.48 Z M 61.961 23.48 L 75.961 23.48 L 75.961 37.48 L 61.961 37.48 L 61.961 23.48 Z M 81.773 23.48 L 95.773 23.48 L 95.773 37.48 L 81.773 37.48 L 81.773 23.48 Z M 101.585 23.48 L 115.585 23.48 L 115.585 37.48 L 101.585 37.48 L 101.585 23.48 Z M 121.397 23.48 L 135.397 23.48 L 135.397 37.48 L 121.397 37.48 L 121.397 23.48 Z M 141.209 23.48 L 155.209 23.48 L 155.209 37.48 L 141.209 37.48 L 141.209 23.48 Z M 161.021 23.48 L 175.021 23.48 L 175.021 37.48 L 161.021 37.48 L 161.021 23.48 Z M 180.833 23.48 L 194.833 23.48 L 194.833 37.48 L 180.833 37.48 L 180.833 23.48 Z M 200.645 23.48 L 214.645 23.48 L 214.645 37.48 L 200.645 37.48 L 200.645 23.48 Z M 220.457 23.48 L 234.457 23.48 L 234.457 37.48 L 220.457 37.48 L 220.457 23.48 Z M 240.269 23.48 L 254.269 23.48 L 254.269 37.48 L 240.269 37.48 L 240.269 23.48 Z M 260.081 23.48 L 274.081 23.48 L 274.081 37.48 L 260.081 37.48 L 260.081 23.48 Z M 2.525 44.435 L 16.525 44.435 L 16.525 58.435 L 2.525 58.435 L 2.525 44.435 Z M 42.149 44.435 L 56.149 44.435 L 56.149 58.435 L 42.149 58.435 L 42.149 44.435 Z M 61.961 44.435 L 75.961 44.435 L 75.961 58.435 L 61.961 58.435 L 61.961 44.435 Z M 81.773 44.435 L 95.773 44.435 L 95.773 58.435 L 81.773 58.435 L 81.773 44.435 Z M 101.585 44.435 L 115.585 44.435 L 115.585 58.435 L 101.585 58.435 L 101.585 44.435 Z M 121.397 44.435 L 135.397 44.435 L 135.397 58.435 L 121.397 58.435 L 121.397 44.435 Z M 141.209 44.435 L 155.209 44.435 L 155.209 58.435 L 141.209 58.435 L 141.209 44.435 Z M 161.021 44.435 L 175.021 44.435 L 175.021 58.435 L 161.021 58.435 L 161.021 44.435 Z M 180.833 44.435 L 194.833 44.435 L 194.833 58.435 L 180.833 58.435 L 180.833 44.435 Z M 200.645 44.435 L 214.645 44.435 L 214.645 58.435 L 200.645 58.435 L 200.645 44.435 Z M 220.457 44.435 L 234.457 44.435 L 234.457 58.435 L 220.457 58.435 L 220.457 44.435 Z M 240.269 44.435 L 254.269 44.435 L 254.269 58.435 L 240.269 58.435 L 240.269 44.435 Z M 260.081 44.435 L 274.081 44.435 L 274.081 58.435 L 260.081 58.435 L 260.081 44.435 Z M 2.525 65.39 L 16.525 65.39 L 16.525 79.39 L 2.525 79.39 L 2.525 65.39 Z M 42.149 65.39 L 56.149 65.39 L 56.149 79.39 L 42.149 79.39 L 42.149 65.39 Z M 61.961 65.39 L 75.961 65.39 L 75.961 79.39 L 61.961 79.39 L 61.961 65.39 Z M 81.773 65.39 L 95.773 65.39 L 95.773 79.39 L 81.773 79.39 L 81.773 65.39 Z M 101.585 65.39 L 115.585 65.39 L 115.585 79.39 L 101.585 79.39 L 101.585 65.39 Z M 121.397 65.39 L 135.397 65.39 L 135.397 79.39 L 121.397 79.39 L 121.397 65.39 Z M 141.209 65.39 L 155.209 65.39 L 155.209 79.39 L 141.209 79.39 L 141.209 65.39 Z M 161.021 65.39 L 175.021 65.39 L 175.021 79.39 L 161.021 79.39 L 161.021 65.39 Z M 180.833 65.39 L 194.833 65.39 L 194.833 79.39 L 180.833 79.39 L 180.833 65.39 Z M 200.645 65.39 L 214.645 65.39 L 214.645 79.39 L 200.645 79.39 L 200.645 65.39 Z M 220.457 65.39 L 234.457 65.39 L 234.457 79.39 L 220.457 79.39 L 220.457 65.39 Z M 240.269 65.39 L 254.269 65.39 L 254.269 79.39 L 240.269 79.39 L 240.269 65.39 Z M 260.081 65.39 L 274.081 65.39 L 274.081 79.39 L 260.081 79.39 L 260.081 65.39 Z M 81.773 86.345 L 95.773 86.345 L 95.773 100.345 L 81.773 100.345 L 81.773 86.345 Z M 101.585 86.345 L 115.585 86.345 L 115.585 100.345 L 101.585 100.345 L 101.585 86.345 Z M 131.303 86.345 L 145.303 86.345 L 145.303 100.345 L 131.303 100.345 L 131.303 86.345 Z M 161.021 86.345 L 175.021 86.345 L 175.021 100.345 L 161.021 100.345 L 161.021 86.345 Z M 180.833 86.345 L 194.833 86.345 L 194.833 100.345 L 180.833 100.345 L 180.833 86.345 Z M 2.525 2.525 L 16.525 2.525 L 16.525 16.525 L 2.525 16.525 L 2.525 2.525 Z" vector-effect="non-scaling-stroke"/></g></svg>