<svg width="291.465mm" height="102.87mm" viewBox="0 0 291.465 102.87" xmlns="http://www.w3.org/2000/svg"><g id="svgGroup" stroke-linecap="round" fill-rule="evenodd" font-size="9pt" stroke="#000" stroke-width="0.25mm" fill="none" style="stroke:#000;stroke-width:0.25mm;fill:none"><path d="M 0 102.87 L 291.465 102.87 L 291.465 0 L 0 0 L 0 102.87 Z M 23.48 23.48 L 37.48 23.48 L 37.48 37.48 L 23.48 37.48 L 23.48 23.48 Z M 23.48 44.435 L 37.48 44.435 L 37.48 58.435 L 23.48 58.435 L 23.48 44.435 Z M 23.48 65.39 L 37.48 65.39 L 37.48 79.39 L 23.48 79.39 L 23.48 65.39 Z M 23.48 2.525 L 37.48 2.525 L 37.48 16.525 L 23.48 16.525 L 23.48 2.525 Z M 44.435 2.525 L 58.435 2.525 L 58.435 16.525 L 44.435 16.525 L 44.435 2.525 Z M 65.39 2.525 L 79.39 2.525 L 79.39 16.525 L 65.39 16.525 L 65.39 2.525 Z M 86.345 2.525 L 100.345 2.525 L 100.345 16.525 L 86.345 16.525 L 86.345 2.525 Z M 107.3 2.525 L 121.3 2.525 L 121.3 16.525 L 107.3 16.525 L 107.3 2.525 Z M 128.255 2.525 L 142.255 2.525 L 142.255 16.525 L 128.255 16.525 L 128.255 2.525 Z M 149.21 2.525 L 163.21 2.525 L 163.21 16.525 L 149.21 16.525 L 149.21 2.525 Z M 170.165 2.525 L 184.165 2.525 L 184.165 16.525 L 170.165 16.525 L 170.165 2.525 Z M 191.12 2.525 L 205.12 2.525 L 205.12 16.525 L 191.12 16.525 L 191.12 2.525 Z M 212.075 2.525 L 226.075 2.525 L 226.075 16.525 L 212.075 16.525 L 212.075 2.525 Z M 233.03 2.525 L 247.03 2.525 L 247.03 16.525 L 233.03 16.525 L 233.03 2.525 Z M 253.985 2.525 L 267.985 2.525 L 267.985 16.525 L 253.985 16.525 L 253.985 2.525 Z M 274.94 2.525 L 288.94 2.525 L 288.94 16.525 L 274.94 16.525 L 274.94 2.525 Z M 2.525 23.48 L 16.525 23.48 L 16.525 37.48 L 2.525 37.48 L 2.525 23.48 Z M 44.435 23.48 L 58.435 23.48 L 58.435 37.48 L 44.435 37.48 L 44.435 23.48 Z M 65.39 23.48 L 79.39 23.48 L 79.39 37.48 L 65.39 37.48 L 65.39 23.48 Z M 86.345 23.48 L 100.345 23.48 L 100.345 37.48 L 86.345 37.48 L 86.345 23.48 Z M 107.3 23.48 L 121.3 23.48 L 121.3 37.48 L 107.3 37.48 L 107.3 23.48 Z M 128.255 23.48 L 142.255 23.48 L 142.255 37.48 L 128.255 37.48 L 128.255 23.48 Z M 149.21 23.48 L 163.21 23.48 L 163.21 37.48 L 149.21 37.48 L 149.21 23.48 Z M 170.165 23.48 L 184.165 23.48 L 184.165 37.48 L 170.165 37.48 L 170.165 23.48 Z M 191.12 23.48 L 205.12 23.48 L 205.12 37.48 L 191.12 37.48 L 191.12 23.48 Z M 212.075 23.48 L 226.075 23.48 L 226.075 37.48 L 212.075 37.48 L 212.075 23.48 Z M 233.03 23.48 L 247.03 23.48 L 247.03 37.48 L 233.03 37.48 L 233.03 23.48 Z M 253.985 23.48 L 267.985 23.48 L 267.985 37.48 L 253.985 37.48 L 253.985 23.48 Z M 274.94 23.48 L 288.94 23.48 L 288.94 37.48 L 274.94 37.48 L 274.94 23.48 Z M 2.525 44.435 L 16.525 44.435 L 16.525 58.435 L 2.525 58.435 L 2.525 44.435 Z M 44.435 44.435 L 58.435 44.435 L 58.435 58.435 L 44.435 58.435 L 44.435 44.435 Z M 65.39 44.435 L 79.39 44.435 L 79.39 58.435 L 65.39 58.435 L 65.39 44.435 Z M 86.345 44.435 L 100.345 44.435 L 100.345 58.435 L 86.345 58.435 L 86.345 44.435 Z M 107.3 44.435 L 121.3 44.435 L 121.3 58.435 L 107.3 58.435 L 107.3 44.435 Z M 128.255 44.435 L 142.255 44.435 L 142.255 58.435 L 128.255 58.435 L 128.255 44.435 Z M 149.21 44.435 L 163.21 44.435 L 163.21 58.435 L 149.21 58.435 L 149.21 44.435 Z M 170.165 44.435 L 184.165 44.435 L 184.165 58.435 L 170.165 58.435 L 170.165 44.435 Z M 191.12 44.435 L 205.12 44.435 L 205.12 58.435 L 191.12 58.435 L 191.12 44.435 Z M 212.075 44.435 L 226.075 44.435 L 226.075 58.435 L 212.075 58.435 L 212.075 44.435 Z M 233.03 44.435 L 247.03 44.435 L 247.03 58.435 L 233.03 58.435 L 233.03 44.435 Z M 253.985 44.435 L 267.985 44.435 L 267.985 58.435 L 253.985 58.435 L 253.985 44.435 Z M 274.94 44.435 L 288.94 44.435 L 288.94 58.435 L 274.94 58.435 L 274.94 44.435 Z M 2.525 65.39 L 16.525 65.39 L 16.525 79.39 L 2.525 79.39 L 2.525 65.39 Z M 44.435 65.39 L 58.435 65.39 L 58.435 79.39 L 44.435 79.39 L 44.435 65.39 Z M 65.39 65.39 L 79.39 65.39 L 79.39 79.39 L 65.39 79.39 L 65.39 65.39 Z M 86.345 65.39 L 100.345 65.39 L 100.345 79.39 L 86.345 79.39 L 86.345 65.39 Z M 107.3 65.39 L 121.3 65.39 L 121.3 79.39 L 107.3 79.39 L 107.3 65.39 Z M 128.255 65.39 L 142.255 65.39 L 142.255 79.39 L 128.255 79.39 L 128.255 65.39 Z M 149.21 65.39 L 163.21 65.39 L 163.21 79.39 L 149.21 79.39 L 149.21 65.39 Z M 170.165 65.39 L 184.165 65.39 L 184.165 79.39 L 170.165 79.39 L 170.165 65.39 Z M 191.12 65.39 L 205.12 65.39 L 205.12 79.39 L 191.12 79.39 L 191.12 65.39 Z M 212.075 65.39 L 226.075 65.39 L 226.075 79.39 L 212.075 79.39 L 212.075 65.39 Z M 233.03 65.39 L 247.03 65.39 L 247.03 79.39 L 233.03 79.39 L 233.03 65.39 Z M 253.985 65.39 L 267.985 65.39 L 267.985 79.39 L 253.985 79.39 L 253.985 65.39 Z M 274.94 65.39 L 288.94 65.39 L 288.94 79.39 L 274.94 79.39 L 274.94 65.39 Z M 86.345 86.345 L 100.345 86.345 L 100.345 100.345 L 86.345 100.345 L 86.345 86.345 Z M 107.3 86.345 L 121.3 86.345 L 121.3 100.345 L 107.3 100.345 L 107.3 86.345 Z M 138.733 86.345 L 152.733 86.345 L 152.733 100.345 L 138.733 100.345 L 138.733 86.345 Z M 170.165 86.345 L 184.165 86.345 L 184.165 100.345 L 170.165 100.345 L 170.165 86.345 Z M 191.12 86.345 L 205.12 86.345 L 205.12 100.345 L 191.12 100.345 L 191.12 86.345 Z M 2.525 2.525 L 16.525 2.525 L 16.525 16.525 L 2.525 16.525 L 2.525 2.525 Z" vector-effect="non-scaling-stroke"/></g></svg>