0
SECTION
2
HEADER
9
$INSUNITS
70
4
0
ENDSEC
0
SECTION
2
TABLES
0
TABLE
2
LTYPE
0
LTYPE
72
65
70
64
2
CONTINUOUS
3
______
73
0
40
0
0
ENDTAB
0
TABLE
2
LAYER
0
ENDTAB
0
ENDSEC
0
SECTION
2
ENTITIES
0
LINE
8
0
10
2.525
20
-2.525
11
16.525
21
-2.525
0
LINE
8
0
10
2.525
20
-16.525
11
16.525
21
-16.525
0
LINE
8
0
10
2.525
20
-2.525
11
2.525
21
-16.525
0
LINE
8
0
10
16.525
20
-2.525
11
16.525
21
-16.525
0
LINE
8
0
10
21.575
20
-2.525
11
35.575
21
-2.525
0
LINE
8
0
10
21.575
20
-16.525
11
35.575
21
-16.525
0
LINE
8
0
10
21.575
20
-2.525
11
21.575
21
-16.525
0
LINE
8
0
10
35.575
20
-2.525
11
35.575
21
-16.525
0
LINE
8
0
10
40.625
20
-2.525
11
54.625
21
-2.525
0
LINE
8
0
10
40.625
20
-16.525
11
54.625
21
-16.525
0
LINE
8
0
10
40.625
20
-2.525
11
40.625
21
-16.525
0
LINE
8
0
10
54.625
20
-2.525
11
54.625
21
-16.525
0
LINE
8
0
10
59.675
20
-2.525
11
73.675
21
-2.525
0
LINE
8
0
10
59.675
20
-16.525
11
73.675
21
-16.525
0
LINE
8
0
10
59.675
20
-2.525
11
59.675
21
-16.525
0
LINE
8
0
10
73.675
20
-2.525
11
73.675
21
-16.525
0
LINE
8
0
10
78.725
20
-2.525
11
92.725
21
-2.525
0
LINE
8
0
10
78.725
20
-16.525
11
92.725
21
-16.525
0
LINE
8
0
10
78.725
20
-2.525
11
78.725
21
-16.525
0
LINE
8
0
10
92.725
20
-2.525
11
92.725
21
-16.525
0
LINE
8
0
10
97.775
20
-2.525
11
111.775
21
-2.525
0
LINE
8
0
10
97.775
20
-16.525
11
111.775
21
-16.525
0
LINE
8
0
10
97.775
20
-2.525
11
97.775
21
-16.525
0
LINE
8
0
10
111.775
20
-2.525
11
111.775
21
-16.525
0
LINE
8
0
10
116.825
20
-2.525
11
130.825
21
-2.525
0
LINE
8
0
10
116.825
20
-16.525
11
130.825
21
-16.525
0
LINE
8
0
10
116.825
20
-2.525
11
116.825
21
-16.525
0
LINE
8
0
10
130.825
20
-2.525
11
130.825
21
-16.525
0
LINE
8
0
10
135.875
20
-2.525
11
149.875
21
-2.525
0
LINE
8
0
10
135.875
20
-16.525
11
149.875
21
-16.525
0
LINE
8
0
10
135.875
20
-2.525
11
135.875
21
-16.525
0
LINE
8
0
10
149.875
20
-2.525
11
149.875
21
-16.525
0
LINE
8
0
10
154.925
20
-2.525
11
168.925
21
-2.525
0
LINE
8
0
10
154.925
20
-16.525
11
168.925
21
-16.525
0
LINE
8
0
10
154.925
20
-2.525
11
154.925
21
-16.525
0
LINE
8
0
10
168.925
20
-2.525
11
168.925
21
-16.525
0
LINE
8
0
10
173.975
20
-2.525
11
187.975
21
-2.525
0
LINE
8
0
10
173.975
20
-16.525
11
187.975
21
-16.525
0
LINE
8
0
10
173.975
20
-2.525
11
173.975
21
-16.525
0
LINE
8
0
10
187.975
20
-2.525
11
187.975
21
-16.525
0
LINE
8
0
10
193.025
20
-2.525
11
207.025
21
-2.525
0
LINE
8
0
10
193.025
20
-16.525
11
207.025
21
-16.525
0
LINE
8
0
10
193.025
20
-2.525
11
193.025
21
-16.525
0
LINE
8
0
10
207.025
20
-2.525
11
207.025
21
-16.525
0
LINE
8
0
10
212.075
20
-2.525
11
226.075
21
-2.525
0
LINE
8
0
10
212.075
20
-16.525
11
226.075
21
-16.525
0
LINE
8
0
10
212.075
20
-2.525
11
212.075
21
-16.525
0
LINE
8
0
10
226.075
20
-2.525
11
226.075
21
-16.525
0
LINE
8
0
10
231.125
20
-2.525
11
245.125
21
-2.525
0
LINE
8
0
10
231.125
20
-16.525
11
245.125
21
-16.525
0
LINE
8
0
10
231.125
20
-2.525
11
231.125
21
-16.525
0
LINE
8
0
10
245.125
20
-2.525
11
245.125
21
-16.525
0
LINE
8
0
10
250.175
20
-2.525
11
264.175
21
-2.525
0
LINE
8
0
10
250.175
20
-16.525
11
264.175
21
-16.525
0
LINE
8
0
10
250.175
20
-2.525
11
250.175
21
-16.525
0
LINE
8
0
10
264.175
20
-2.525
11
264.175
21
-16.525
0
LINE
8
0
10
2.525
20
-21.575
11
16.525
21
-21.575
0
LINE
8
0
10
2.525
20
-35.575
11
16.525
21
-35.575
0
LINE
8
0
10
2.525
20
-21.575
11
2.525
21
-35.575
0
LINE
8
0
10
16.525
20
-21.575
11
16.525
21
-35.575
0
LINE
8
0
10
21.575
20
-21.575
11
35.575
21
-21.575
0
LINE
8
0
10
21.575
20
-35.575
11
35.575
21
-35.575
0
LINE
8
0
10
21.575
20
-21.575
11
21.575
21
-35.575
0
LINE
8
0
10
35.575
20
-21.575
11
35.575
21
-35.575
0
LINE
8
0
10
40.625
20
-21.575
11
54.625
21
-21.575
0
LINE
8
0
10
40.625
20
-35.575
11
54.625
21
-35.575
0
LINE
8
0
10
40.625
20
-21.575
11
40.625
21
-35.575
0
LINE
8
0
10
54.625
20
-21.575
11
54.625
21
-35.575
0
LINE
8
0
10
59.675
20
-21.575
11
73.675
21
-21.575
0
LINE
8
0
10
59.675
20
-35.575
11
73.675
21
-35.575
0
LINE
8
0
10
59.675
20
-21.575
11
59.675
21
-35.575
0
LINE
8
0
10
73.675
20
-21.575
11
73.675
21
-35.575
0
LINE
8
0
10
78.725
20
-21.575
11
92.725
21
-21.575
0
LINE
8
0
10
78.725
20
-35.575
11
92.725
21
-35.575
0
LINE
8
0
10
78.725
20
-21.575
11
78.725
21
-35.575
0
LINE
8
0
10
92.725
20
-21.575
11
92.725
21
-35.575
0
LINE
8
0
10
97.775
20
-21.575
11
111.775
21
-21.575
0
LINE
8
0
10
97.775
20
-35.575
11
111.775
21
-35.575
0
LINE
8
0
10
97.775
20
-21.575
11
97.775
21
-35.575
0
LINE
8
0
10
111.775
20
-21.575
11
111.775
21
-35.575
0
LINE
8
0
10
116.825
20
-21.575
11
130.825
21
-21.575
0
LINE
8
0
10
116.825
20
-35.575
11
130.825
21
-35.575
0
LINE
8
0
10
116.825
20
-21.575
11
116.825
21
-35.575
0
LINE
8
0
10
130.825
20
-21.575
11
130.825
21
-35.575
0
LINE
8
0
10
135.875
20
-21.575
11
149.875
21
-21.575
0
LINE
8
0
10
135.875
20
-35.575
11
149.875
21
-35.575
0
LINE
8
0
10
135.875
20
-21.575
11
135.875
21
-35.575
0
LINE
8
0
10
149.875
20
-21.575
11
149.875
21
-35.575
0
LINE
8
0
10
154.925
20
-21.575
11
168.925
21
-21.575
0
LINE
8
0
10
154.925
20
-35.575
11
168.925
21
-35.575
0
LINE
8
0
10
154.925
20
-21.575
11
154.925
21
-35.575
0
LINE
8
0
10
168.925
20
-21.575
11
168.925
21
-35.575
0
LINE
8
0
10
173.975
20
-21.575
11
187.975
21
-21.575
0
LINE
8
0
10
173.975
20
-35.575
11
187.975
21
-35.575
0
LINE
8
0
10
173.975
20
-21.575
11
173.975
21
-35.575
0
LINE
8
0
10
187.975
20
-21.575
11
187.975
21
-35.575
0
LINE
8
0
10
193.025
20
-21.575
11
207.025
21
-21.575
0
LINE
8
0
10
193.025
20
-35.575
11
207.025
21
-35.575
0
LINE
8
0
10
193.025
20
-21.575
11
193.025
21
-35.575
0
LINE
8
0
10
207.025
20
-21.575
11
207.025
21
-35.575
0
LINE
8
0
10
212.075
20
-21.575
11
226.075
21
-21.575
0
LINE
8
0
10
212.075
20
-35.575
11
226.075
21
-35.575
0
LINE
8
0
10
212.075
20
-21.575
11
212.075
21
-35.575
0
LINE
8
0
10
226.075
20
-21.575
11
226.075
21
-35.575
0
LINE
8
0
10
231.125
20
-21.575
11
245.125
21
-21.575
0
LINE
8
0
10
231.125
20
-35.575
11
245.125
21
-35.575
0
LINE
8
0
10
231.125
20
-21.575
11
231.125
21
-35.575
0
LINE
8
0
10
245.125
20
-21.575
11
245.125
21
-35.575
0
LINE
8
0
10
250.175
20
-21.575
11
264.175
21
-21.575
0
LINE
8
0
10
250.175
20
-35.575
11
264.175
21
-35.575
0
LINE
8
0
10
250.175
20
-21.575
11
250.175
21
-35.575
0
LINE
8
0
10
264.175
20
-21.575
11
264.175
21
-35.575
0
LINE
8
0
10
2.525
20
-40.625
11
16.525
21
-40.625
0
LINE
8
0
10
2.525
20
-54.625
11
16.525
21
-54.625
0
LINE
8
0
10
2.525
20
-40.625
11
2.525
21
-54.625
0
LINE
8
0
10
16.525
20
-40.625
11
16.525
21
-54.625
0
LINE
8
0
10
21.575
20
-40.625
11
35.575
21
-40.625
0
LINE
8
0
10
21.575
20
-54.625
11
35.575
21
-54.625
0
LINE
8
0
10
21.575
20
-40.625
11
21.575
21
-54.625
0
LINE
8
0
10
35.575
20
-40.625
11
35.575
21
-54.625
0
LINE
8
0
10
40.625
20
-40.625
11
54.625
21
-40.625
0
LINE
8
0
10
40.625
20
-54.625
11
54.625
21
-54.625
0
LINE
8
0
10
40.625
20
-40.625
11
40.625
21
-54.625
0
LINE
8
0
10
54.625
20
-40.625
11
54.625
21
-54.625
0
LINE
8
0
10
59.675
20
-40.625
11
73.675
21
-40.625
0
LINE
8
0
10
59.675
20
-54.625
11
73.675
21
-54.625
0
LINE
8
0
10
59.675
20
-40.625
11
59.675
21
-54.625
0
LINE
8
0
10
73.675
20
-40.625
11
73.675
21
-54.625
0
LINE
8
0
10
78.725
20
-40.625
11
92.725
21
-40.625
0
LINE
8
0
10
78.725
20
-54.625
11
92.725
21
-54.625
0
LINE
8
0
10
78.725
20
-40.625
11
78.725
21
-54.625
0
LINE
8
0
10
92.725
20
-40.625
11
92.725
21
-54.625
0
LINE
8
0
10
97.775
20
-40.625
11
111.775
21
-40.625
0
LINE
8
0
10
97.775
20
-54.625
11
111.775
21
-54.625
0
LINE
8
0
10
97.775
20
-40.625
11
97.775
21
-54.625
0
LINE
8
0
10
111.775
20
-40.625
11
111.775
21
-54.625
0
LINE
8
0
10
116.825
20
-40.625
11
130.825
21
-40.625
0
LINE
8
0
10
116.825
20
-54.625
11
130.825
21
-54.625
0
LINE
8
0
10
116.825
20
-40.625
11
116.825
21
-54.625
0
LINE
8
0
10
130.825
20
-40.625
11
130.825
21
-54.625
0
LINE
8
0
10
135.875
20
-40.625
11
149.875
21
-40.625
0
LINE
8
0
10
135.875
20
-54.625
11
149.875
21
-54.625
0
LINE
8
0
10
135.875
20
-40.625
11
135.875
21
-54.625
0
LINE
8
0
10
149.875
20
-40.625
11
149.875
21
-54.625
0
LINE
8
0
10
154.925
20
-40.625
11
168.925
21
-40.625
0
LINE
8
0
10
154.925
20
-54.625
11
168.925
21
-54.625
0
LINE
8
0
10
154.925
20
-40.625
11
154.925
21
-54.625
0
LINE
8
0
10
168.925
20
-40.625
11
168.925
21
-54.625
0
LINE
8
0
10
173.975
20
-40.625
11
187.975
21
-40.625
0
LINE
8
0
10
173.975
20
-54.625
11
187.975
21
-54.625
0
LINE
8
0
10
173.975
20
-40.625
11
173.975
21
-54.625
0
LINE
8
0
10
187.975
20
-40.625
11
187.975
21
-54.625
0
LINE
8
0
10
193.025
20
-40.625
11
207.025
21
-40.625
0
LINE
8
0
10
193.025
20
-54.625
11
207.025
21
-54.625
0
LINE
8
0
10
193.025
20
-40.625
11
193.025
21
-54.625
0
LINE
8
0
10
207.025
20
-40.625
11
207.025
21
-54.625
0
LINE
8
0
10
212.075
20
-40.625
11
226.075
21
-40.625
0
LINE
8
0
10
212.075
20
-54.625
11
226.075
21
-54.625
0
LINE
8
0
10
212.075
20
-40.625
11
212.075
21
-54.625
0
LINE
8
0
10
226.075
20
-40.625
11
226.075
21
-54.625
0
LINE
8
0
10
231.125
20
-40.625
11
245.125
21
-40.625
0
LINE
8
0
10
231.125
20
-54.625
11
245.125
21
-54.625
0
LINE
8
0
10
231.125
20
-40.625
11
231.125
21
-54.625
0
LINE
8
0
10
245.125
20
-40.625
11
245.125
21
-54.625
0
LINE
8
0
10
250.175
20
-40.625
11
264.175
21
-40.625
0
LINE
8
0
10
250.175
20
-54.625
11
264.175
21
-54.625
0
LINE
8
0
10
250.175
20
-40.625
11
250.175
21
-54.625
0
LINE
8
0
10
264.175
20
-40.625
11
264.175
21
-54.625
0
LINE
8
0
10
2.525
20
-59.675
11
16.525
21
-59.675
0
LINE
8
0
10
2.525
20
-73.675
11
16.525
21
-73.675
0
LINE
8
0
10
2.525
20
-59.675
11
2.525
21
-73.675
0
LINE
8
0
10
16.525
20
-59.675
11
16.525
21
-73.675
0
LINE
8
0
10
21.575
20
-59.675
11
35.575
21
-59.675
0
LINE
8
0
10
21.575
20
-73.675
11
35.575
21
-73.675
0
LINE
8
0
10
21.575
20
-59.675
11
21.575
21
-73.675
0
LINE
8
0
10
35.575
20
-59.675
11
35.575
21
-73.675
0
LINE
8
0
10
40.625
20
-59.675
11
54.625
21
-59.675
0
LINE
8
0
10
40.625
20
-73.675
11
54.625
21
-73.675
0
LINE
8
0
10
40.625
20
-59.675
11
40.625
21
-73.675
0
LINE
8
0
10
54.625
20
-59.675
11
54.625
21
-73.675
0
LINE
8
0
10
59.675
20
-59.675
11
73.675
21
-59.675
0
LINE
8
0
10
59.675
20
-73.675
11
73.675
21
-73.675
0
LINE
8
0
10
59.675
20
-59.675
11
59.675
21
-73.675
0
LINE
8
0
10
73.675
20
-59.675
11
73.675
21
-73.675
0
LINE
8
0
10
78.725
20
-59.675
11
92.725
21
-59.675
0
LINE
8
0
10
78.725
20
-73.675
11
92.725
21
-73.675
0
LINE
8
0
10
78.725
20
-59.675
11
78.725
21
-73.675
0
LINE
8
0
10
92.725
20
-59.675
11
92.725
21
-73.675
0
LINE
8
0
10
97.775
20
-59.675
11
111.775
21
-59.675
0
LINE
8
0
10
97.775
20
-73.675
11
111.775
21
-73.675
0
LINE
8
0
10
97.775
20
-59.675
11
97.775
21
-73.675
0
LINE
8
0
10
111.775
20
-59.675
11
111.775
21
-73.675
0
LINE
8
0
10
116.825
20
-59.675
11
130.825
21
-59.675
0
LINE
8
0
10
116.825
20
-73.675
11
130.825
21
-73.675
0
LINE
8
0
10
116.825
20
-59.675
11
116.825
21
-73.675
0
LINE
8
0
10
130.825
20
-59.675
11
130.825
21
-73.675
0
LINE
8
0
10
135.875
20
-59.675
11
149.875
21
-59.675
0
LINE
8
0
10
135.875
20
-73.675
11
149.875
21
-73.675
0
LINE
8
0
10
135.875
20
-59.675
11
135.875
21
-73.675
0
LINE
8
0
10
149.875
20
-59.675
11
149.875
21
-73.675
0
LINE
8
0
10
154.925
20
-59.675
11
168.925
21
-59.675
0
LINE
8
0
10
154.925
20
-73.675
11
168.925
21
-73.675
0
LINE
8
0
10
154.925
20
-59.675
11
154.925
21
-73.675
0
LINE
8
0
10
168.925
20
-59.675
11
168.925
21
-73.675
0
LINE
8
0
10
173.975
20
-59.675
11
187.975
21
-59.675
0
LINE
8
0
10
173.975
20
-73.675
11
187.975
21
-73.675
0
LINE
8
0
10
173.975
20
-59.675
11
173.975
21
-73.675
0
LINE
8
0
10
187.975
20
-59.675
11
187.975
21
-73.675
0
LINE
8
0
10
193.025
20
-59.675
11
207.025
21
-59.675
0
LINE
8
0
10
193.025
20
-73.675
11
207.025
21
-73.675
0
LINE
8
0
10
193.025
20
-59.675
11
193.025
21
-73.675
0
LINE
8
0
10
207.025
20
-59.675
11
207.025
21
-73.675
0
LINE
8
0
10
212.075
20
-59.675
11
226.075
21
-59.675
0
LINE
8
0
10
212.075
20
-73.675
11
226.075
21
-73.675
0
LINE
8
0
10
212.075
20
-59.675
11
212.075
21
-73.675
0
LINE
8
0
10
226.075
20
-59.675
11
226.075
21
-73.675
0
LINE
8
0
10
231.125
20
-59.675
11
245.125
21
-59.675
0
LINE
8
0
10
231.125
20
-73.675
11
245.125
21
-73.675
0
LINE
8
0
10
231.125
20
-59.675
11
231.125
21
-73.675
0
LINE
8
0
10
245.125
20
-59.675
11
245.125
21
-73.675
0
LINE
8
0
10
250.175
20
-59.675
11
264.175
21
-59.675
0
LINE
8
0
10
250.175
20
-73.675
11
264.175
21
-73.675
0
LINE
8
0
10
250.175
20
-59.675
11
250.175
21
-73.675
0
LINE
8
0
10
264.175
20
-59.675
11
264.175
21
-73.675
0
LINE
8
0
10
78.725
20
-78.725
11
92.725
21
-78.725
0
LINE
8
0
10
78.725
20
-92.725
11
92.725
21
-92.725
0
LINE
8
0
10
78.725
20
-78.725
11
78.725
21
-92.725
0
LINE
8
0
10
92.725
20
-78.725
11
92.725
21
-92.725
0
LINE
8
0
10
97.775
20
-78.725
11
111.775
21
-78.725
0
LINE
8
0
10
97.775
20
-92.725
11
111.775
21
-92.725
0
LINE
8
0
10
97.775
20
-78.725
11
97.775
21
-92.725
0
LINE
8
0
10
111.775
20
-78.725
11
111.775
21
-92.725
0
LINE
8
0
10
126.35
20
-78.725
11
140.35
21
-78.725
0
LINE
8
0
10
126.35
20
-92.725
11
140.35
21
-92.725
0
LINE
8
0
10
126.35
20
-78.725
11
126.35
21
-92.725
0
LINE
8
0
10
140.35
20
-78.725
11
140.35
21
-92.725
0
LINE
8
0
10
154.925
20
-78.725
11
168.925
21
-78.725
0
LINE
8
0
10
154.925
20
-92.725
11
168.925
21
-92.725
0
LINE
8
0
10
154.925
20
-78.725
11
154.925
21
-92.725
0
LINE
8
0
10
168.925
20
-78.725
11
168.925
21
-92.725
0
LINE
8
0
10
173.975
20
-78.725
11
187.975
21
-78.725
0
LINE
8
0
10
173.975
20
-92.725
11
187.975
21
-92.725
0
LINE
8
0
10
173.975
20
-78.725
11
173.975
21
-92.725
0
LINE
8
0
10
187.975
20
-78.725
11
187.975
21
-92.725
0
LINE
8
0
10
0
20
-95.25
11
266.7
21
-95.25
0
LINE
8
0
10
0
20
0
11
266.7
21
0
0
LINE
8
0
10
0
20
-95.25
11
0
21
0
0
LINE
8
0
10
266.7
20
-95.25
11
266.7
21
0
0
ENDSEC
0
EOF