0
SECTION
2
HEADER
9
$INSUNITS
70
4
0
ENDSEC
0
SECTION
2
TABLES
0
TABLE
2
LTYPE
0
LTYPE
72
65
70
64
2
CONTINUOUS
3
______
73
0
40
0
0
ENDTAB
0
TABLE
2
LAYER
0
ENDTAB
0
ENDSEC
0
SECTION
2
ENTITIES
0
LINE
8
0
10
2.525
20
-2.525
11
16.525
21
-2.525
0
LINE
8
0
10
2.525
20
-16.525
11
16.525
21
-16.525
0
LINE
8
0
10
2.525
20
-2.525
11
2.525
21
-16.525
0
LINE
8
0
10
16.525
20
-2.525
11
16.525
21
-16.525
0
LINE
8
0
10
23.48
20
-2.525
11
37.48
21
-2.525
0
LINE
8
0
10
23.48
20
-16.525
11
37.48
21
-16.525
0
LINE
8
0
10
23.48
20
-2.525
11
23.48
21
-16.525
0
LINE
8
0
10
37.48
20
-2.525
11
37.48
21
-16.525
0
LINE
8
0
10
44.435
20
-2.525
11
58.435
21
-2.525
0
LINE
8
0
10
44.435
20
-16.525
11
58.435
21
-16.525
0
LINE
8
0
10
44.435
20
-2.525
11
44.435
21
-16.525
0
LINE
8
0
10
58.435
20
-2.525
11
58.435
21
-16.525
0
LINE
8
0
10
65.39
20
-2.525
11
79.39
21
-2.525
0
LINE
8
0
10
65.39
20
-16.525
11
79.39
21
-16.525
0
LINE
8
0
10
65.39
20
-2.525
11
65.39
21
-16.525
0
LINE
8
0
10
79.39
20
-2.525
11
79.39
21
-16.525
0
LINE
8
0
10
86.345
20
-2.525
11
100.345
21
-2.525
0
LINE
8
0
10
86.345
20
-16.525
11
100.345
21
-16.525
0
LINE
8
0
10
86.345
20
-2.525
11
86.345
21
-16.525
0
LINE
8
0
10
100.345
20
-2.525
11
100.345
21
-16.525
0
LINE
8
0
10
107.3
20
-2.525
11
121.3
21
-2.525
0
LINE
8
0
10
107.3
20
-16.525
11
121.3
21
-16.525
0
LINE
8
0
10
107.3
20
-2.525
11
107.3
21
-16.525
0
LINE
8
0
10
121.3
20
-2.525
11
121.3
21
-16.525
0
LINE
8
0
10
128.255
20
-2.525
11
142.255
21
-2.525
0
LINE
8
0
10
128.255
20
-16.525
11
142.255
21
-16.525
0
LINE
8
0
10
128.255
20
-2.525
11
128.255
21
-16.525
0
LINE
8
0
10
142.255
20
-2.525
11
142.255
21
-16.525
0
LINE
8
0
10
149.21
20
-2.525
11
163.21
21
-2.525
0
LINE
8
0
10
149.21
20
-16.525
11
163.21
21
-16.525
0
LINE
8
0
10
149.21
20
-2.525
11
149.21
21
-16.525
0
LINE
8
0
10
163.21
20
-2.525
11
163.21
21
-16.525
0
LINE
8
0
10
170.165
20
-2.525
11
184.165
21
-2.525
0
LINE
8
0
10
170.165
20
-16.525
11
184.165
21
-16.525
0
LINE
8
0
10
170.165
20
-2.525
11
170.165
21
-16.525
0
LINE
8
0
10
184.165
20
-2.525
11
184.165
21
-16.525
0
LINE
8
0
10
191.12
20
-2.525
11
205.12
21
-2.525
0
LINE
8
0
10
191.12
20
-16.525
11
205.12
21
-16.525
0
LINE
8
0
10
191.12
20
-2.525
11
191.12
21
-16.525
0
LINE
8
0
10
205.12
20
-2.525
11
205.12
21
-16.525
0
LINE
8
0
10
212.075
20
-2.525
11
226.075
21
-2.525
0
LINE
8
0
10
212.075
20
-16.525
11
226.075
21
-16.525
0
LINE
8
0
10
212.075
20
-2.525
11
212.075
21
-16.525
0
LINE
8
0
10
226.075
20
-2.525
11
226.075
21
-16.525
0
LINE
8
0
10
233.03
20
-2.525
11
247.03
21
-2.525
0
LINE
8
0
10
233.03
20
-16.525
11
247.03
21
-16.525
0
LINE
8
0
10
233.03
20
-2.525
11
233.03
21
-16.525
0
LINE
8
0
10
247.03
20
-2.525
11
247.03
21
-16.525
0
LINE
8
0
10
253.985
20
-2.525
11
267.985
21
-2.525
0
LINE
8
0
10
253.985
20
-16.525
11
267.985
21
-16.525
0
LINE
8
0
10
253.985
20
-2.525
11
253.985
21
-16.525
0
LINE
8
0
10
267.985
20
-2.525
11
267.985
21
-16.525
0
LINE
8
0
10
274.94
20
-2.525
11
288.94
21
-2.525
0
LINE
8
0
10
274.94
20
-16.525
11
288.94
21
-16.525
0
LINE
8
0
10
274.94
20
-2.525
11
274.94
21
-16.525
0
LINE
8
0
10
288.94
20
-2.525
11
288.94
21
-16.525
0
LINE
8
0
10
2.525
20
-23.48
11
16.525
21
-23.48
0
LINE
8
0
10
2.525
20
-37.48
11
16.525
21
-37.48
0
LINE
8
0
10
2.525
20
-23.48
11
2.525
21
-37.48
0
LINE
8
0
10
16.525
20
-23.48
11
16.525
21
-37.48
0
LINE
8
0
10
23.48
20
-23.48
11
37.48
21
-23.48
0
LINE
8
0
10
23.48
20
-37.48
11
37.48
21
-37.48
0
LINE
8
0
10
23.48
20
-23.48
11
23.48
21
-37.48
0
LINE
8
0
10
37.48
20
-23.48
11
37.48
21
-37.48
0
LINE
8
0
10
44.435
20
-23.48
11
58.435
21
-23.48
0
LINE
8
0
10
44.435
20
-37.48
11
58.435
21
-37.48
0
LINE
8
0
10
44.435
20
-23.48
11
44.435
21
-37.48
0
LINE
8
0
10
58.435
20
-23.48
11
58.435
21
-37.48
0
LINE
8
0
10
65.39
20
-23.48
11
79.39
21
-23.48
0
LINE
8
0
10
65.39
20
-37.48
11
79.39
21
-37.48
0
LINE
8
0
10
65.39
20
-23.48
11
65.39
21
-37.48
0
LINE
8
0
10
79.39
20
-23.48
11
79.39
21
-37.48
0
LINE
8
0
10
86.345
20
-23.48
11
100.345
21
-23.48
0
LINE
8
0
10
86.345
20
-37.48
11
100.345
21
-37.48
0
LINE
8
0
10
86.345
20
-23.48
11
86.345
21
-37.48
0
LINE
8
0
10
100.345
20
-23.48
11
100.345
21
-37.48
0
LINE
8
0
10
107.3
20
-23.48
11
121.3
21
-23.48
0
LINE
8
0
10
107.3
20
-37.48
11
121.3
21
-37.48
0
LINE
8
0
10
107.3
20
-23.48
11
107.3
21
-37.48
0
LINE
8
0
10
121.3
20
-23.48
11
121.3
21
-37.48
0
LINE
8
0
10
128.255
20
-23.48
11
142.255
21
-23.48
0
LINE
8
0
10
128.255
20
-37.48
11
142.255
21
-37.48
0
LINE
8
0
10
128.255
20
-23.48
11
128.255
21
-37.48
0
LINE
8
0
10
142.255
20
-23.48
11
142.255
21
-37.48
0
LINE
8
0
10
149.21
20
-23.48
11
163.21
21
-23.48
0
LINE
8
0
10
149.21
20
-37.48
11
163.21
21
-37.48
0
LINE
8
0
10
149.21
20
-23.48
11
149.21
21
-37.48
0
LINE
8
0
10
163.21
20
-23.48
11
163.21
21
-37.48
0
LINE
8
0
10
170.165
20
-23.48
11
184.165
21
-23.48
0
LINE
8
0
10
170.165
20
-37.48
11
184.165
21
-37.48
0
LINE
8
0
10
170.165
20
-23.48
11
170.165
21
-37.48
0
LINE
8
0
10
184.165
20
-23.48
11
184.165
21
-37.48
0
LINE
8
0
10
191.12
20
-23.48
11
205.12
21
-23.48
0
LINE
8
0
10
191.12
20
-37.48
11
205.12
21
-37.48
0
LINE
8
0
10
191.12
20
-23.48
11
191.12
21
-37.48
0
LINE
8
0
10
205.12
20
-23.48
11
205.12
21
-37.48
0
LINE
8
0
10
212.075
20
-23.48
11
226.075
21
-23.48
0
LINE
8
0
10
212.075
20
-37.48
11
226.075
21
-37.48
0
LINE
8
0
10
212.075
20
-23.48
11
212.075
21
-37.48
0
LINE
8
0
10
226.075
20
-23.48
11
226.075
21
-37.48
0
LINE
8
0
10
233.03
20
-23.48
11
247.03
21
-23.48
0
LINE
8
0
10
233.03
20
-37.48
11
247.03
21
-37.48
0
LINE
8
0
10
233.03
20
-23.48
11
233.03
21
-37.48
0
LINE
8
0
10
247.03
20
-23.48
11
247.03
21
-37.48
0
LINE
8
0
10
253.985
20
-23.48
11
267.985
21
-23.48
0
LINE
8
0
10
253.985
20
-37.48
11
267.985
21
-37.48
0
LINE
8
0
10
253.985
20
-23.48
11
253.985
21
-37.48
0
LINE
8
0
10
267.985
20
-23.48
11
267.985
21
-37.48
0
LINE
8
0
10
274.94
20
-23.48
11
288.94
21
-23.48
0
LINE
8
0
10
274.94
20
-37.48
11
288.94
21
-37.48
0
LINE
8
0
10
274.94
20
-23.48
11
274.94
21
-37.48
0
LINE
8
0
10
288.94
20
-23.48
11
288.94
21
-37.48
0
LINE
8
0
10
2.525
20
-44.435
11
16.525
21
-44.435
0
LINE
8
0
10
2.525
20
-58.435
11
16.525
21
-58.435
0
LINE
8
0
10
2.525
20
-44.435
11
2.525
21
-58.435
0
LINE
8
0
10
16.525
20
-44.435
11
16.525
21
-58.435
0
LINE
8
0
10
23.48
20
-44.435
11
37.48
21
-44.435
0
LINE
8
0
10
23.48
20
-58.435
11
37.48
21
-58.435
0
LINE
8
0
10
23.48
20
-44.435
11
23.48
21
-58.435
0
LINE
8
0
10
37.48
20
-44.435
11
37.48
21
-58.435
0
LINE
8
0
10
44.435
20
-44.435
11
58.435
21
-44.435
0
LINE
8
0
10
44.435
20
-58.435
11
58.435
21
-58.435
0
LINE
8
0
10
44.435
20
-44.435
11
44.435
21
-58.435
0
LINE
8
0
10
58.435
20
-44.435
11
58.435
21
-58.435
0
LINE
8
0
10
65.39
20
-44.435
11
79.39
21
-44.435
0
LINE
8
0
10
65.39
20
-58.435
11
79.39
21
-58.435
0
LINE
8
0
10
65.39
20
-44.435
11
65.39
21
-58.435
0
LINE
8
0
10
79.39
20
-44.435
11
79.39
21
-58.435
0
LINE
8
0
10
86.345
20
-44.435
11
100.345
21
-44.435
0
LINE
8
0
10
86.345
20
-58.435
11
100.345
21
-58.435
0
LINE
8
0
10
86.345
20
-44.435
11
86.345
21
-58.435
0
LINE
8
0
10
100.345
20
-44.435
11
100.345
21
-58.435
0
LINE
8
0
10
107.3
20
-44.435
11
121.3
21
-44.435
0
LINE
8
0
10
107.3
20
-58.435
11
121.3
21
-58.435
0
LINE
8
0
10
107.3
20
-44.435
11
107.3
21
-58.435
0
LINE
8
0
10
121.3
20
-44.435
11
121.3
21
-58.435
0
LINE
8
0
10
128.255
20
-44.435
11
142.255
21
-44.435
0
LINE
8
0
10
128.255
20
-58.435
11
142.255
21
-58.435
0
LINE
8
0
10
128.255
20
-44.435
11
128.255
21
-58.435
0
LINE
8
0
10
142.255
20
-44.435
11
142.255
21
-58.435
0
LINE
8
0
10
149.21
20
-44.435
11
163.21
21
-44.435
0
LINE
8
0
10
149.21
20
-58.435
11
163.21
21
-58.435
0
LINE
8
0
10
149.21
20
-44.435
11
149.21
21
-58.435
0
LINE
8
0
10
163.21
20
-44.435
11
163.21
21
-58.435
0
LINE
8
0
10
170.165
20
-44.435
11
184.165
21
-44.435
0
LINE
8
0
10
170.165
20
-58.435
11
184.165
21
-58.435
0
LINE
8
0
10
170.165
20
-44.435
11
170.165
21
-58.435
0
LINE
8
0
10
184.165
20
-44.435
11
184.165
21
-58.435
0
LINE
8
0
10
191.12
20
-44.435
11
205.12
21
-44.435
0
LINE
8
0
10
191.12
20
-58.435
11
205.12
21
-58.435
0
LINE
8
0
10
191.12
20
-44.435
11
191.12
21
-58.435
0
LINE
8
0
10
205.12
20
-44.435
11
205.12
21
-58.435
0
LINE
8
0
10
212.075
20
-44.435
11
226.075
21
-44.435
0
LINE
8
0
10
212.075
20
-58.435
11
226.075
21
-58.435
0
LINE
8
0
10
212.075
20
-44.435
11
212.075
21
-58.435
0
LINE
8
0
10
226.075
20
-44.435
11
226.075
21
-58.435
0
LINE
8
0
10
233.03
20
-44.435
11
247.03
21
-44.435
0
LINE
8
0
10
233.03
20
-58.435
11
247.03
21
-58.435
0
LINE
8
0
10
233.03
20
-44.435
11
233.03
21
-58.435
0
LINE
8
0
10
247.03
20
-44.435
11
247.03
21
-58.435
0
LINE
8
0
10
253.985
20
-44.435
11
267.985
21
-44.435
0
LINE
8
0
10
253.985
20
-58.435
11
267.985
21
-58.435
0
LINE
8
0
10
253.985
20
-44.435
11
253.985
21
-58.435
0
LINE
8
0
10
267.985
20
-44.435
11
267.985
21
-58.435
0
LINE
8
0
10
274.94
20
-44.435
11
288.94
21
-44.435
0
LINE
8
0
10
274.94
20
-58.435
11
288.94
21
-58.435
0
LINE
8
0
10
274.94
20
-44.435
11
274.94
21
-58.435
0
LINE
8
0
10
288.94
20
-44.435
11
288.94
21
-58.435
0
LINE
8
0
10
2.525
20
-65.39
11
16.525
21
-65.39
0
LINE
8
0
10
2.525
20
-79.39
11
16.525
21
-79.39
0
LINE
8
0
10
2.525
20
-65.39
11
2.525
21
-79.39
0
LINE
8
0
10
16.525
20
-65.39
11
16.525
21
-79.39
0
LINE
8
0
10
23.48
20
-65.39
11
37.48
21
-65.39
0
LINE
8
0
10
23.48
20
-79.39
11
37.48
21
-79.39
0
LINE
8
0
10
23.48
20
-65.39
11
23.48
21
-79.39
0
LINE
8
0
10
37.48
20
-65.39
11
37.48
21
-79.39
0
LINE
8
0
10
44.435
20
-65.39
11
58.435
21
-65.39
0
LINE
8
0
10
44.435
20
-79.39
11
58.435
21
-79.39
0
LINE
8
0
10
44.435
20
-65.39
11
44.435
21
-79.39
0
LINE
8
0
10
58.435
20
-65.39
11
58.435
21
-79.39
0
LINE
8
0
10
65.39
20
-65.39
11
79.39
21
-65.39
0
LINE
8
0
10
65.39
20
-79.39
11
79.39
21
-79.39
0
LINE
8
0
10
65.39
20
-65.39
11
65.39
21
-79.39
0
LINE
8
0
10
79.39
20
-65.39
11
79.39
21
-79.39
0
LINE
8
0
10
86.345
20
-65.39
11
100.345
21
-65.39
0
LINE
8
0
10
86.345
20
-79.39
11
100.345
21
-79.39
0
LINE
8
0
10
86.345
20
-65.39
11
86.345
21
-79.39
0
LINE
8
0
10
100.345
20
-65.39
11
100.345
21
-79.39
0
LINE
8
0
10
107.3
20
-65.39
11
121.3
21
-65.39
0
LINE
8
0
10
107.3
20
-79.39
11
121.3
21
-79.39
0
LINE
8
0
10
107.3
20
-65.39
11
107.3
21
-79.39
0
LINE
8
0
10
121.3
20
-65.39
11
121.3
21
-79.39
0
LINE
8
0
10
128.255
20
-65.39
11
142.255
21
-65.39
0
LINE
8
0
10
128.255
20
-79.39
11
142.255
21
-79.39
0
LINE
8
0
10
128.255
20
-65.39
11
128.255
21
-79.39
0
LINE
8
0
10
142.255
20
-65.39
11
142.255
21
-79.39
0
LINE
8
0
10
149.21
20
-65.39
11
163.21
21
-65.39
0
LINE
8
0
10
149.21
20
-79.39
11
163.21
21
-79.39
0
LINE
8
0
10
149.21
20
-65.39
11
149.21
21
-79.39
0
LINE
8
0
10
163.21
20
-65.39
11
163.21
21
-79.39
0
LINE
8
0
10
170.165
20
-65.39
11
184.165
21
-65.39
0
LINE
8
0
10
170.165
20
-79.39
11
184.165
21
-79.39
0
LINE
8
0
10
170.165
20
-65.39
11
170.165
21
-79.39
0
LINE
8
0
10
184.165
20
-65.39
11
184.165
21
-79.39
0
LINE
8
0
10
191.12
20
-65.39
11
205.12
21
-65.39
0
LINE
8
0
10
191.12
20
-79.39
11
205.12
21
-79.39
0
LINE
8
0
10
191.12
20
-65.39
11
191.12
21
-79.39
0
LINE
8
0
10
205.12
20
-65.39
11
205.12
21
-79.39
0
LINE
8
0
10
212.075
20
-65.39
11
226.075
21
-65.39
0
LINE
8
0
10
212.075
20
-79.39
11
226.075
21
-79.39
0
LINE
8
0
10
212.075
20
-65.39
11
212.075
21
-79.39
0
LINE
8
0
10
226.075
20
-65.39
11
226.075
21
-79.39
0
LINE
8
0
10
233.03
20
-65.39
11
247.03
21
-65.39
0
LINE
8
0
10
233.03
20
-79.39
11
247.03
21
-79.39
0
LINE
8
0
10
233.03
20
-65.39
11
233.03
21
-79.39
0
LINE
8
0
10
247.03
20
-65.39
11
247.03
21
-79.39
0
LINE
8
0
10
253.985
20
-65.39
11
267.985
21
-65.39
0
LINE
8
0
10
253.985
20
-79.39
11
267.985
21
-79.39
0
LINE
8
0
10
253.985
20
-65.39
11
253.985
21
-79.39
0
LINE
8
0
10
267.985
20
-65.39
11
267.985
21
-79.39
0
LINE
8
0
10
274.94
20
-65.39
11
288.94
21
-65.39
0
LINE
8
0
10
274.94
20
-79.39
11
288.94
21
-79.39
0
LINE
8
0
10
274.94
20
-65.39
11
274.94
21
-79.39
0
LINE
8
0
10
288.94
20
-65.39
11
288.94
21
-79.39
0
LINE
8
0
10
86.345
20
-86.345
11
100.345
21
-86.345
0
LINE
8
0
10
86.345
20
-100.345
11
100.345
21
-100.345
0
LINE
8
0
10
86.345
20
-86.345
11
86.345
21
-100.345
0
LINE
8
0
10
100.345
20
-86.345
11
100.345
21
-100.345
0
LINE
8
0
10
107.3
20
-86.345
11
121.3
21
-86.345
0
LINE
8
0
10
107.3
20
-100.345
11
121.3
21
-100.345
0
LINE
8
0
10
107.3
20
-86.345
11
107.3
21
-100.345
0
LINE
8
0
10
121.3
20
-86.345
11
121.3
21
-100.345
0
LINE
8
0
10
138.7325
20
-86.345
11
152.7325
21
-86.345
0
LINE
8
0
10
138.7325
20
-100.345
11
152.7325
21
-100.345
0
LINE
8
0
10
138.7325
20
-86.345
11
138.7325
21
-100.345
0
LINE
8
0
10
152.7325
20
-86.345
11
152.7325
21
-100.345
0
LINE
8
0
10
170.165
20
-86.345
11
184.165
21
-86.345
0
LINE
8
0
10
170.165
20
-100.345
11
184.165
21
-100.345
0
LINE
8
0
10
170.165
20
-86.345
11
170.165
21
-100.345
0
LINE
8
0
10
184.165
20
-86.345
11
184.165
21
-100.345
0
LINE
8
0
10
191.12
20
-86.345
11
205.12
21
-86.345
0
LINE
8
0
10
191.12
20
-100.345
11
205.12
21
-100.345
0
LINE
8
0
10
191.12
20
-86.345
11
191.12
21
-100.345
0
LINE
8
0
10
205.12
20
-86.345
11
205.12
21
-100.345
0
LINE
8
0
10
0
20
-102.87
11
291.465
21
-102.87
0
LINE
8
0
10
0
20
0
11
291.465
21
0
0
LINE
8
0
10
0
20
-102.87
11
0
21
0
0
LINE
8
0
10
291.465
20
-102.87
11
291.465
21
0
0
ENDSEC
0
EOF